<svg
      version="1.1"
      id="Layer_1"
      xmlns="http://www.w3.org/2000/svg"
      xmlns:xlink="http://www.w3.org/1999/xlink"
      x="0px"
      y="0px"
      viewBox="0 0 570 143.6"
      style="enable-background: new 0 0 570 143.6"
      xml:space="preserve"
    >
      <title>CODE Internet Applications</title>
      <defs>
        <style type="text/css">
          .st00 {
            fill: white;
          }
          .st11 {
            fill: #ffe0d6;
          }
          .st22 {
            fill: #1294d7;
          }
          .st33 {
            fill: #fc441a;
          }
          .st44 {
            fill: #ffcc33;
          }
          .st55 {
            fill: #c8e4d2;
          }
        </style>
      </defs>
      <path
        class="st00"
        d="M296.6,116.6c-9.3,3.7-23.6,5.4-37.8,5.4c-14.8,0-27.9-3.8-38.4-12.4c-10.3-8.5-16.4-21.5-16.4-36.2c0-15.1,5.9-28.6,16.1-37.3c10-8.5,23.6-13.9,39.1-13.9c13.5,0,27.1,1.5,36.4,4.9c1.2,9.4,1.1,16.1,2.9,30.9l-1.8,0.3c-4.8-6.9-33.4-30.7-39.6-32.6c-5.1,2.3-11,8.1-14.9,16c-3.7,7.6-5.6,17.3-5.6,29c0,13.9,3.3,24.5,8.4,32.6c4.9,7.8,11.3,12.4,17.1,14.8c4.8-1.2,32.2-22.1,37.3-29.4l1.8,0.4C299.3,98.7,298.1,109.7,296.6,116.6z"
      />
      <path
        class="st00"
        d="M330.2,59.7c6.6-3.4,16.1-5.4,24.2-5.4c10,0,20.4,3,27.6,8.4c8.4,6.2,12.5,14.8,12.5,25.2c0,12.1-7.4,23-20.2,29.2c-5.4,2.6-13.2,4.8-20.6,4.8c-10.7,0-21.5-2.7-29.3-8.2c-8.4-5.9-13.1-14.3-13.1-24.8C311.4,76,318.6,65.7,330.2,59.7z M351.7,57.3c-6,2.8-9.3,14.2-9.3,27.5c0,17.6,4.9,30.1,12.4,33.8c5.5-2.3,8.9-14.3,8.9-28.1C363.7,72.9,358.6,59.1,351.7,57.3z"
      />
      <path
        class="st00"
        d="M455.3,109.6c-5.9,5.6-15.1,12.2-24.1,12.2c-7.2,0-12.9-3-17.3-7.7c-5.6-6.1-8.2-13.8-8.2-23.4c0-14.2,6.6-23.1,11.6-27.2c7.6-6.3,17.3-9.2,28.1-9.2c3.7,0,7.3,0.6,9.9,1.5c0-3.3-0.1-7-0.3-10.7c-0.4-9.5-1.7-13.1-3.3-15.4c-1.7-2.3-4.8-3.8-8.7-3.8l-0.4-1.8c4-0.8,36.7-12.4,39.2-12.4l1.2,0.7c0.7,2.1,1,5.1,1,9.5c0,16.5-0.6,40-0.6,62.6v4.4c0,8.7,1.1,13.8,2.7,16.2c1.1,1.7,2.6,2.6,4.3,2.6c0.6,0,1.1,0,1.7-0.1l0.3,1.5c-5.6,2.3-29.2,13.3-33.7,13.3l-1.2-0.8C456.9,120.6,456,117.3,455.3,109.6z M446,57.3c-0.5,0-1.2,0.1-1.5,0.3c-4.1,3.2-8.1,12.1-8.1,27.2c0,7.4,1.1,13.1,3.8,17.9c1.9,3.3,5.4,5.6,8.5,6.1c1.9-0.4,4.3-1.2,6.3-3c0-2.3,0.1-6.2,0.1-10.3V61.9C453.1,59.1,449.4,57.3,446,57.3z"
      />
      <path
        class="st00"
        d="M548.7,107.5c8.1,0,14.6-4,19.5-9.5l1.5,1.1c-6.2,11.7-17.5,22.7-34.4,22.7c-9.5,0-17.6-2.1-24.5-7.4C504,109,499.3,99.8,499.3,88c0-18.1,14.7-33.7,36.2-33.7c20.5,0,30.5,12,33.8,24.5c0.4,1.5,0.7,3,0.7,4.1c0,1-0.4,1.4-0.7,1.7L530,85.4v0.6C530,100.1,537.5,107.5,548.7,107.5z M530.1,82.4c5.1-0.1,10.2-0.4,13.3-0.8c-0.7-11.6-3.3-21.5-7.3-24.2C532.5,61.3,530.4,69.7,530.1,82.4z"
      />
      <polygon class="st11" points="143.6,71.8 71.8,0 143.6,0 " />
      <polygon class="st22" points="71.8,0 143.6,71.8 71.8,71.8 " />
      <polygon class="st33" points="71.8,143.6 143.6,71.8 143.6,143.6 " />
      <polygon class="st00" points="143.6,71.8 71.8,143.6 71.8,71.8 " />
      <path class="st44" d="M0,71.8h71.8V0C32.2,0,0,32.2,0,71.8z" />
      <path class="st55" d="M71.8,143.6V71.8H0C0,111.5,32.2,143.6,71.8,143.6z" />
    </svg>